<svg id="Layer_1" data-name="Layer 1" xmlns="http://www.w3.org/2000/svg" viewBox="0 0 1922.04 1280"><defs><style>.cls-1{fill:#eeedee;}.cls-2{fill:#f15b22;}.cls-3{fill:#322876;}</style></defs><title>fedex</title><rect class="cls-1" width="1922.04" height="1280"/><g id="g6"><polygon id="polygon10" class="cls-2" points="1312.26 497.92 1358.29 548.65 1402.6 497.92 1497.21 497.92 1404.75 601.9 1498.48 706.74 1400.05 706.74 1354.46 655.61 1309.28 706.74 1214.23 706.74 1307.15 602.34 1214.23 497.92 1312.26 497.92"/><polygon id="polygon12" class="cls-2" points="1214.23 497.92 1214.23 568.48 1109 568.48 1109 633.22 1214.23 633.22 1214.23 706.74 1031.66 706.74 1031.66 377.81 1214.23 377.81 1214.23 451.13 1109 451.13 1109 497.92 1214.23 497.92"/><path id="path14" class="cls-3" d="M954.65,377.81V512.42h-.85C936.74,492.82,915.44,486,890.73,486c-50.63,0-88.77,34.43-102.16,79.93-15.28-50.14-54.66-80.88-113.05-80.88-47.42,0-84.86,21.28-104.4,56v-43.1h-98v-46.8h107V377.81H385.74V706.74H473.1V568.48h87.09a131.07,131.07,0,0,0-4,32.52c0,68.6,52.42,116.76,119.31,116.76,56.26,0,93.33-26.41,112.93-74.55H713.57C703.44,657.68,695.76,662,675.52,662,652,662,631.8,641.48,631.8,617.2H784.26c6.61,54.49,49.07,101.49,107.32,101.49a74.63,74.63,0,0,0,62.21-33.23h.85v21.3h77v-329ZM634.24,569.45c4.85-20.9,21.07-34.54,41.3-34.54,22.27,0,37.65,13.23,41.7,34.54ZM907.9,656.66c-28.39,0-46-26.46-46-54.08,0-29.52,15.35-57.91,46-57.91,31.82,0,44.5,28.39,44.5,57.91C952.39,630.57,939,656.66,907.9,656.66Z"/><path id="path16" class="cls-3" d="M1031.68,871.21V753.33h65.13v8.79h-54.39v43.46h52.08v8.79h-52.08v48h56.81v8.81h-67.55Z"/><path id="path18" class="cls-3" d="M1107,871.21l31.76-42.33-30.12-40h12.21l24.59,32.72,24.09-32.72h12.21l-30.6,40,31.9,42.33h-12.36l-26.38-35-25.07,35Z"/><path id="path20" class="cls-3" d="M1203.71,902.12h-9.94v-88.7c0-8.14,0-16.43-.49-24.59h9.78l.32,12.38c6.17-9.78,14.31-14.33,26.54-14.33,25.39,0,36.29,21,36.29,43.12s-10.9,43.15-36.29,43.15c-11.41,0-20.35-4.39-26.21-13.85ZM1255.64,830c0-17.57-7.34-34.84-26.86-34.84-18.39,0-25.07,15.15-25.07,34.84s6.68,34.84,25.07,34.84C1248.31,864.84,1255.64,847.59,1255.64,830Z"/><path id="path22" class="cls-3" d="M1317.27,796.47c-16.44,0-22.16,13.85-22.16,28.16v46.58h-9.94V813.07c0-8-.15-16.09-.48-24.23h9.8l.63,11.88c4.88-9.43,13-13.83,23.94-13.83a41.1,41.1,0,0,1,4.56.32v9.94A38.73,38.73,0,0,0,1317.27,796.47Z"/><path id="path24" class="cls-3" d="M1335.79,831.8c0,18.55,8.78,33.85,26.85,33.85,14,0,20.51-9.27,23-18.55H1395c-4.4,17.25-15,26.06-33.71,26.06-25.07,0-36.15-18.56-36.15-41.67,0-23.6,11.56-44.6,37.45-44.6,26.21,0,33.21,22.94,33.21,44.91Zm.31-7.48h49.16c0-16.12-7.63-30-23.28-30C1347.83,794.35,1338,805.09,1336.1,824.32Z"/><path id="path26" class="cls-3" d="M1434.61,873.16c-16.92,0-29.61-8-29.61-26.06h9.94c0,12.36,8.13,18.55,20.18,18.55,11.24,0,20-5.38,20-16.41,0-9.94-10.25-12.55-21-15.64-13-3.74-27.19-7.82-27.19-23.77,0-17.73,14.81-22.94,28.65-22.94,15.93,0,27.83,6.17,28.31,23.26H1454c-.48-9.75-7.48-15.29-18.07-15.29-8.3,0-18.39,3.25-18.39,14,0,9.78,10.09,12.55,20.83,15.47,13,3.57,27.36,7.48,27.36,23.45C1465.7,866.31,1451.39,873.16,1434.61,873.16Z"/><path id="path28" class="cls-3" d="M1503.47,873.16c-16.94,0-29.63-8-29.63-26.06h9.94c0,12.36,8.13,18.55,20.2,18.55,11.24,0,20-5.38,20-16.41,0-9.94-10.26-12.55-21-15.64-13-3.74-27.17-7.82-27.17-23.77,0-17.73,14.81-22.94,28.65-22.94,15.93,0,27.83,6.17,28.31,23.26h-9.94c-.48-9.75-7.48-15.29-18.07-15.29-8.3,0-18.39,3.25-18.39,14,0,9.78,10.09,12.55,20.85,15.47,13,3.57,27.36,7.48,27.36,23.45,0,18.55-14.36,25.39-31.13,25.39Z"/></g></svg>