<svg id="Layer_1" data-name="Layer 1" xmlns="http://www.w3.org/2000/svg" viewBox="0 0 445.1 152.98"><defs><style>.cls-1,.cls-2{fill:none;stroke:#fff;stroke-width:3px;}.cls-1{stroke-linecap:round;stroke-linejoin:round;}.cls-2{stroke-miterlimit:10;}</style></defs><title>Plok_logo</title><path class="cls-1" d="M39.89,111.34c3.2,5.55,79-47.08,79.61-46,0,0-73.27,42.41-71.23,45.94C50,114.24,118.44,70,118.8,70.59c1.71,3-64.72,34.19-61,40.7s59.53-34.37,59.53-34.37S61.85,111.2,61.9,111.28s53.65-33.08,54.56-31.5c0,0-47.7,26.71-45.14,31.15,2.11,3.65,39.8-28.23,42.07-24.29,1.23,2.13-25.65,17.73-24.11,20.39.37.64,13.26-9.78,14.17-8.18"/><path class="cls-1" d="M40,39.11c2.57,4.45,44.33-28.38,45.53-26.29.55,1-41.49,23.21-39.72,26.28C48.33,43.43,86.89,9.81,89.31,14c.55,1-34.77,25.09-34.77,25.09s37.64-26.83,39.85-23c2,3.45-40,19.84-38.17,23,1.35,2.35,36.61-26.94,39.12-22.59,0,0-41.08,18.31-38.61,22.59,1.56,2.7,36-27.46,38.9-22.46,1.27,2.2-36,18.75-33.83,22.46.87,1.51,34.77-23.77,36.37-21,0,0-29.3,18.67-27.24,22.23L103.35,21.6s-32.61,17.81-32,18.85c0,.07,32.29-18.64,32.29-18.64.11.2-31.06,18.25-30.5,19.2,2.05,3.56,31.69-18.3,31.69-18.3s-28.47,19-27.59,20.53c0,0,28.89-20.5,30.55-17.64.94,1.63-30.4,16.2-28.83,18.91,1.81,3.13,29.61-18.49,30.21-17.44,1.19,2.06-28.59,19.19-28.59,19.19,1.83,3.17,28.81-19.42,30-17.33C112,31.4,81.26,47.11,81.26,47.11s29.21-18.63,30-17.31c2,3.47-28.95,19.5-27.64,21.77,1.54,2.67,29.1-19.59,30.31-17.5,2.3,4-30.15,18.81-29.6,19.77,0,0,29.91-19.11,30.71-17.73,1,1.7-30,22.85-30,22.93,1.85,3.21,31.86-18.39,31.86-18.39,2.25,3.89-32.8,17.32-31.81,19,.4.69,32-18.49,32-18.48C117.83,42.52,85,62.15,85,62.15s32-19.93,32.65-18.85c.27.47-35.21,23.78-34,25.91,1.51,2.62,32.66-24.79,35.23-20.34C120.68,52,83.48,69.67,83.48,69.67L118.94,49.2c1.21,2.1-35.64,20.94-35.64,20.94C84.35,72,118,47.9,119,49.53c1.18,2-38.72,25.59-38.72,25.59,1.79,3.1,39.17-22.62,39.17-22.62,1.08,1.88-40.37,22.29-39.79,23.3,0,0,39.44-23.64,39.82-23"/><path class="cls-1" d="M1.91,10.87s1.41-1,1.5-.87c0,0-1.63,1.06-1.5,1.27,0,0,2.12-1.43,2.21-1.27,0,0-2.31,5.14-2.21,5.32S11.12,10,11.12,10,1.61,20,1.91,20.47C3.09,22.52,19.24,8.62,20,10,21.55,12.61,1.91,25,1.91,25c.52.89,26-15,26-15,.5.87-27.94,14.43-26,17.77C2.52,28.84,32.62,9.89,32.69,10,34.62,13.35,1.91,32.09,1.91,32.09,2.92,33.83,38.27,6.72,40.16,10c.51.89-38.25,26.18-38.25,26.18C2.11,36.53,44.59,5.4,47.25,10,50.45,15.54.49,39.27,1.91,41.72L56.84,10C57.9,11.83,1.91,46.51,1.91,46.51L65,10.06C68.89,16.74,1.91,49.43,1.91,49.43,7,58.18,69.79,10.23,69.79,10.23S-1.77,46.34,1.91,52.7c0,0,69.75-47.16,72.73-42C76,13.16,1.57,54.78,1.91,55.36L78.39,11.2c.84,1.45-80,41.4-76.48,47.45.39.68,80.68-46.58,80.68-46.58S.35,58.75,1.91,61.44L38.39,40.38c.57,1-38,24.72-36.48,27.27C3.53,70.46,38.4,46.58,38.4,46.58L1.91,69.22c0,.06,36.49-21.07,36.49-21.07L1.91,73.9,38.4,52.83c.17.29-39,19.46-36.5,23.71.17.29,36.5-21.07,36.5-21.07C40.69,59.43.78,75,1.91,76.91c1.75,3,36.5-21.07,36.5-21.07.18.32-37.08,23.91-36.5,24.9,2.15,3.73,36.51-21.08,36.51-21.08,2.88,5-36.51,25.73-36.51,25.73C4,89,35.8,59.77,38.42,64.3c0,0-37.32,20.43-36.51,21.82L38.42,65,1.91,90c1.42,2.46,36.52-21.09,36.52-21.09.42.73-36.62,22-36.52,22.2C4.51,95.61,37.22,67.91,38.43,70,41.15,74.72-.07,91.16,1.91,94.59c0,0,34.78-24.12,36.53-21.09L1.91,94.65c1.6,2.77,34.77-24.14,36.53-21.09.49.84-36.53,27-36.53,27S38,78.68,38.44,79.43c0,0-38.34,20.85-36.54,24,1,1.69,36.72-21.2,36.72-21.2,2.84,4.92-37.67,24-36.72,25.64,3.3,5.72,44.41-25.64,44.41-25.64.38.65-45,26.33-44.41,27.29,1,1.66,47.28-27.29,47.28-27.29,2.15,3.72-49,27.19-47.28,30.21C3.16,114.58,52.3,78.85,54.23,82.2,56.92,86.86-.37,114.09,1.91,118c3.16,5.48,60.92-38.37,62.3-36,3.9,6.76-64.65,33.21-62.3,37.29C6.34,127,67,81.78,67,81.78L1.91,122.65c3.52,6.1,115.63-71.45,117.66-67.93,0,0-124.86,59-117.66,71.46,3.64,6.31,117.83-68,117.83-68,4.87,8.44-121.1,65.38-117.83,71,5.09,8.81,117.79-68,117.79-68S-6.54,121.42,1.91,136.06c1.66,2.88,34.72-24.13,36.49-21.06.42.73-38.92,20.9-36.49,25.13,0,0,36.49-21.07,36.49-21.07.64,1.11-36.49,24-36.49,24S38.4,122,38.4,122s-37.34,20-36.5,21.44c0,0,35.31-23.13,36.5-21.07L1.91,146.66c.65,1.12,35.68-22.49,36.5-21.07C39.48,127.45,1,146.1,3.28,150.14c1.2,2.08,35.13-20.28,35.13-20.28S4.93,149.91,5.06,150.13c2,3.53,31.12-23.14,33.36-19.26C40,133.69,7,150.13,7,150.13c1,1.76,29.9-20.8,31.43-18.15,0,0-23.55,17.67-23.29,18.13.52.89,23.29-13.45,23.29-13.45l-21,13.44S38,137.26,38.43,138L22.56,150.1c.3.52,15.26-10.21,15.87-9.16.11.19-7.45,8.46-7.06,9.15.12.22,7.06-4.08,7.06-4.08.15.26-2.43,3.83-2.3,4.07,0,0,2.17-1.55,2.3-1.33a13.81,13.81,0,0,1-1.5,1.33c.1.18,1.42-1,1.5-.87"/><path class="cls-1" d="M138.87,2.64s1.41-1,1.5-.87c0,0-1.63,1.06-1.5,1.28,0,0,2.12-1.43,2.21-1.28,0,0-2.31,5.14-2.21,5.32s9.23-5.33,9.23-5.33-9.52,10-9.23,10.48C140.06,14.29,156.24.37,157,1.76c1.51,2.61-18.16,15-18.16,15,.52.9,26.05-15,26.05-15,.5.87-28,14.45-26.05,17.79.61,1.06,30.76-17.91,30.83-17.8,1.93,3.35-30.83,22.11-30.83,22.11.94,1.62,33.78-23.56,35.54-20.52.48.83-35.54,24.61-35.54,24.61.16.27,33.46-24.13,35.54-20.52,2.55,4.41-36.66,24.11-35.54,26.06L174.42,13c.7,1.21-35.54,25.31-35.54,25.31l35.54-20.52c2.21,3.82-35.54,23.44-35.54,23.44,2.65,4.58,35.54-20.52,35.54-20.52s-37.51,20.4-35.54,23.8c0,0,34.09-23,35.54-20.52.7,1.22-35.71,22.89-35.54,23.18l35.54-20.52c.4.69-37.21,20.94-35.54,23.82.17.3,35.55-20.52,35.55-20.52S138.18,52,138.87,53.21l35.55-20.52c.55,1-37,24.24-35.55,26.73,1.58,2.74,35.55-20.52,35.55-20.52L138.87,61c0,.05,35.55-20.52,35.55-20.52l-35.55,25.2,35.55-20.52c.16.28-37.94,19-35.55,23.17.16.28,35.55-20.52,35.55-20.52,2.23,3.86-36.64,19-35.55,20.9,1.71,3,35.55-20.52,35.55-20.52.18.31-36.11,23.38-35.55,24.35C141,76.14,174.42,52,174.42,52c2.81,4.87-35.55,25.17-35.55,25.17,2,3.55,33-24.94,35.55-20.53,0,0-36.33,19.91-35.55,21.26l35.55-20.53L138.87,81.74c1.38,2.4,35.55-20.53,35.55-20.53.41.71-35.65,21.48-35.55,21.64,2.54,4.39,34.37-22.57,35.55-20.53,2.65,4.6-37.48,20.69-35.55,24,0,0,33.85-23.48,35.55-20.53L138.87,86.42c1.56,2.69,33.84-23.5,35.55-20.53.47.82-35.55,26.4-35.55,26.4S174,71,174.43,71.77c0,0-37.31,20.36-35.55,23.4.94,1.63,35.55-20.53,35.55-20.53,2.75,4.77-36.47,23.37-35.55,25,2.64,4.58,35.56-20.53,35.56-20.53.3.52-36,21.41-35.56,22.18.72,1.25,35.56-20.53,35.56-20.53,1.63,2.82-36.88,21.15-35.56,23.44.85,1.47,34.24-22.8,35.56-20.53,1.87,3.24-37.14,23.41-35.56,26.15,1.8,3.13,34.77-21.9,35.56-20.53,2.24,3.89-36.91,19.51-35.56,21.85,2.42,4.2,35.56-20.53,35.56-20.53l-35.56,23.83c1.06,1.84,34.94-21.59,35.56-20.53,0,0-37.8,20.17-35.56,24.06,1.1,1.9,35.56-20.53,35.56-20.53,1.51,2.62-36.57,21.79-35.56,23.54,1.54,2.66,35.56-20.53,35.56-20.53s-38.28,22.69-35.56,27.4c1.62,2.81,33.84-23.51,35.56-20.53.41.72-37.94,20.47-35.56,24.59,0,0,35.56-20.53,35.56-20.53.62,1.08-35.56,23.44-35.56,23.44s35.56-20.53,35.56-20.53-36.39,19.46-35.56,20.9c0,0,34.4-22.54,35.56-20.53l-35.56,23.8c.63,1.09,34.76-21.92,35.56-20.53,1.09,1.89-37.92,20.71-35.56,24.8,1.22,2.11,35.56-20.53,35.56-20.53s-35.7,21.32-35.56,21.56c2.17,3.77,33.18-24.67,35.56-20.53,1.83,3.18-35.56,21.64-35.56,21.64,1.15,2,33.83-23.53,35.56-20.53,0,0-36,24.54-35.56,25.22.79,1.37,35.57-20.53,35.57-20.53l-34.31,21.15s33.61-21,34.31-19.81l-29.21,19.81c.55,1,28.1-18.8,29.22-16.87.26.44-21.32,15.29-20.41,16.86.36.62,20.41-11.79,20.41-11.79.63,1.09-16.23,10.79-15.66,11.78,0,0,14.79-10.54,15.66-9,.26.46-5.66,9-5.66,9,.39.68,5.35-3.81,5.66-3.27l-1.5,3.26s1.47-.92,1.5-.87"/><path class="cls-1" d="M246.57,70.37c2.78,4.82,36.57-25.08,38.29-22.1,1.84,3.19-35.75,17.86-33.73,21.35l35.42-20.45c.09.15-28.42,20.94-28.42,20.94s31.46-19.68,32.12-18.54-25.41,21.19-25.41,21.19L295,55.32s-30.4,15-28.25,18.73c.89,1.55,29.84-17.23,29.84-17.23.79,1.37-27.82,17.95-25.91,21.26.65,1.13,29-18.31,29.65-17.12s-27.19,21.11-27.19,21.11c1.67,2.89,29.85-17.56,30-17.32,0,0-30.08,18.67-28.18,22S303.39,65,305.68,69c0,0-31.4,16.56-30.67,17.81,0,0,29.52-19.79,30.71-17.73,0,0-32.4,15.37-30.42,18.8,0,0,28.71-21.59,30.88-17.83,0,0-31.24,18.78-30.44,20.17.3.51,31.41-18.13,31.41-18.13,2.32,4-31,20.91-31,20.91.39.67,32-18.5,32-18.5l-32,23.86S307.36,75,309.68,79c1.3,2.26-35.06,17.89-33.57,20.48.94,1.63,31.71-23.14,33.8-19.51,0,0-34.8,21.32-34.15,22.45,1.21,2.1,34.35-20.7,34.73-20.05.81,1.4-35.95,21.58-35.24,22.8,0,0,34.11-23.41,35.72-20.62,0,0-40.78,21.55-37.94,26.47,2.48,4.3,36.47-25.8,38.52-22.24S273,111.15,273,111.15l38.6-22.29c2.53,4.38-41.29,20.32-39.33,23.72L311.7,89.79s-41.94,19.67-39.81,23.35c.59,1,38.11-26,39.84-23,.85,1.48-45.31,23.11-43.08,27,1.91,3.3,42.91-25.38,43.18-24.93,2.25,3.89-43.22,25-43.22,25,2.23,3.86,43.22-25,43.22-25"/><path class="cls-1" d="M212.46,53.89s14-10.29,15-8.65c0,0-17.75,7.82-16.52,9.95.17.29,17.75-12,18.5-10.68,0,0-26.53,18-26,19,.08.14,37.9-21.88,37.9-21.88S198,69.3,199.11,71.2c3.43,5.94,50.27-34.36,52.58-30.36,4.21,7.29-54.89,36.24-54.89,36.24,1.24,2.15,62.42-36,62.42-36,1.18,2-67.93,31.43-63.37,39.34,1.34,2.32,67.18-39.12,67.33-38.87,4.14,7.17-68.37,43.79-68.37,43.79,2,3.39,70.46-49.15,74.13-42.8,1,1.69-74.74,47.25-74.74,47.25.35.61,75-54.07,79.66-46,5.5,9.53-82.35,47.48-79.92,51.68l85.87-49.58c1.62,2.81-85.7,54.27-85.7,54.27l44.4-25.63c2.73,4.72-44.19,28.43-44.19,28.43,2.93,5.08,39.36-22.72,39.36-22.72S192.57,102.27,194.71,106c0,0,35.36-23.9,36.87-21.29.72,1.25-36.65,23.43-36.48,23.72l35.47-20.48c.39.68-36.41,20.56-34.78,23.38.17.29,34.08-19.68,34.08-19.68s-34.13,21-33.47,22.11l33.29-19.22c.5.86-32.76,22.15-31.47,24.38,1.41,2.44,31.62-18.25,31.62-18.25l-31,19.49s31.26-18,31.26-18l-29.5,21.71L231,106.24c.13.23-31.2,16.08-29.22,19.51.14.24,30-17.29,30-17.29,1.87,3.23-30.71,16-29.79,17.57,1.44,2.49,29.89-17.26,29.89-17.26.14.25-28.54,19.27-28.09,20,1.74,3,29.51-17,29.51-17,2.18,3.78-27,20.26-27,20.26,1.68,2.92,27.16-20.52,29.25-16.89,0,0-29.47,16.28-28.83,17.38l29.21-16.86L209,135c1.14,2,29.26-16.89,29.26-16.89.33.57-28.65,17.48-28.57,17.62,2.09,3.63,28.38-18.64,29.36-16.95,2,3.54-28.43,16.49-27,19.05,0,0,28.32-19.64,29.74-17.17l-29.69,17.21c1.3,2.25,28.33-19.67,29.76-17.18.35.61-25.34,20.5-25.34,20.5s31.28-18.93,31.66-18.28c0,0-30.79,17.28-29.33,19.81.89,1.54,33.54-19.36,33.54-19.36,2.32,4-30.33,20.16-29.55,21.5,6.62,11.46,89-51.39,89-51.39.74,1.27-88.51,50.24-87.42,52.13,1.77,3.07,87.49-50.51,87.49-50.51,3.79,6.57-87.63,46.39-84.55,51.73,2,3.5,81.38-54.19,84.5-48.78,4,6.86-81.63,45-78.28,50.82,4,6.84,76.12-47.94,77.85-44.95,4.77,8.26-79.12,40.36-76.24,45.34,5.18,9,76-43.9,76-43.9L239.4,150.12c2.13,3.69,70-43.26,71.23-41.13,0,0-70.37,34.7-66.28,41.79,2,3.5,65.29-37.7,65.29-37.7,2.54,4.39-62.37,35.09-60.67,38,2.56,4.44,59.4-34.29,59.4-34.29s-50.4,27.87-46.9,33.94c1.92,3.33,40.16-27.91,42.2-24.37.37.65-34,18.74-31.87,22.46,0,0,26.23-15.14,26.23-15.14.34.59-19.57,13-19.57,13s14.7-8.49,14.7-8.49"/><path class="cls-1" d="M378.18,110c1.67,2.89,28.8-18.44,29.59-17.08.4.69-29.45,17.4-28.17,19.61,1.71,3,28-20,29.68-17.13.45.78-27.56,20.93-27.56,20.93s28.16-20.08,29.81-17.21c1.54,2.67-30.81,15.5-29.41,17.94,1,1.79,27.92-20.55,29.84-17.23,0,0-31.62,14.16-29.71,17.45,1.19,2.07,27.63-21.07,29.85-17.23,1.08,1.87-30.44,16.28-28.61,19.45.72,1.24,28.61-19.56,29.93-17.28,0,0-29.23,18.64-27.17,22.2L416.35,107s-30.51,16.68-29.95,17.66c0,.07,30.11-17.39,30.11-17.39.11.19-30,17.67-29.44,18.59,2,3.39,30.16-17.41,30.16-17.41S388.13,127.78,389,129.34c0,0,28.64-20.33,30.28-17.48,1,1.66-30.92,16.44-29.32,19.2,1.82,3.14,29.74-18.57,30.34-17.52,1.21,2.1-29.21,19.55-29.21,19.55,1.86,3.22,29.2-19.67,30.42-17.56C423,118,391.65,134,391.65,134s29.67-18.93,30.45-17.58c2,3.51-29.32,19.68-28,22,1.56,2.7,29.39-19.78,30.61-17.67,2.29,4-30,18.75-29.47,19.7,0,0,29.88-19.09,30.68-17.71.93,1.61-28.35,21.88-28.31,22,1.79,3.11,30.83-17.8,30.83-17.8,2.16,3.74-31.5,16.66-30.56,18.3.38.67,30.84-17.82,30.85-17.81.71,1.23-29.83,19.64-29.83,19.64s30.33-18.87,30.92-17.85c.21.36-26.37,19.32-25.42,21,1.21,2.1,26.19-19.88,28.25-16.31,1.4,2.43-27.62,16.31-27.62,16.31l27.78-16c.93,1.6-27.15,16-27.15,16,.8,1.39,26.59-17,27.32-15.77s-21.71,15.77-21.71,15.77c1.06,1.83,23.17-13.38,23.17-13.38.42.73-12.37,13-12.14,13.37,0,0,14.86-8.91,15-8.66,0,0-3.14,8.66-3.14,8.66s6-4,6.23-3.59c.12.21-3.87,3.4-3.76,3.59,0,0,4.25-2.79,4.4-2.54s0,2.46,0,2.54,1.11-.64,1.11-.64"/><path class="cls-1" d="M399.64,43.88c.24.42,3.15-2.16,3.3-1.91.43.75-7.68,5.22-7.21,6l10.46-6c.06.11-19.89,16-19.89,16S413.47,41,414,42c1.05,1.82-41.29,30.35-41.29,30.35L425.33,42s-60.95,27.41-56.72,34.74C370.41,79.83,428.78,42,428.78,42"/><path class="cls-1" d="M331.27,2.64s1.41-1,1.5-.87c0,0-1.63,1.06-1.5,1.28,0,0,2.12-1.43,2.21-1.28,0,0-2.31,5.14-2.21,5.32s9.23-5.33,9.23-5.33-9.52,10-9.23,10.48c1.18,2.05,17.36-11.87,18.16-10.49,1.51,2.61-18.16,15-18.16,15,.52.9,26.05-15,26.05-15,.5.87-28,14.45-26.05,17.79.61,1.06,30.76-17.91,30.83-17.8,1.93,3.35-30.83,22.11-30.83,22.11.94,1.62,33.78-23.56,35.54-20.52.48.83-35.54,24.61-35.54,24.61.16.27,33.46-24.12,35.54-20.52,2.55,4.41-36.66,24.11-35.54,26.06L366.81,13c.7,1.21-35.54,25.31-35.54,25.31l35.54-20.52C369,21.58,331.27,41.2,331.27,41.2c2.65,4.58,35.54-20.52,35.54-20.52s-37.5,20.4-35.54,23.8c0,0,34.08-23,35.54-20.52.7,1.22-35.71,22.89-35.54,23.18l35.54-20.52c.4.69-37.2,20.94-35.54,23.81.17.3,35.54-20.52,35.54-20.52S330.57,52,331.27,53.21l35.54-20.52c.55,1-37,24.24-35.54,26.73,1.58,2.74,35.54-20.52,35.54-20.52L331.27,61c0,.05,35.54-20.52,35.54-20.52l-35.54,25.2,35.54-20.52c.16.28-37.93,19-35.54,23.16.16.28,35.54-20.52,35.54-20.52,2.23,3.85-36.63,19-35.54,20.89,1.71,3,35.54-20.52,35.54-20.52.18.31-36.1,23.37-35.54,24.34C333.36,76.14,366.81,52,366.81,52c2.81,4.87-35.54,25.17-35.54,25.17,2,3.54,33-24.93,35.54-20.52,0,0-36.32,19.9-35.54,21.26l35.54-20.52L331.27,81.74c1.38,2.4,35.54-20.52,35.54-20.52.41.71-35.63,21.47-35.54,21.64,2.54,4.39,34.36-22.56,35.54-20.52,2.65,4.59-37.46,20.68-35.54,24,0,0,33.84-23.47,35.54-20.52L331.27,86.42c1.55,2.69,33.83-23.49,35.54-20.52.47.82-35.54,26.39-35.54,26.39S366.39,71,366.81,71.78c0,0-37.3,20.35-35.54,23.4.94,1.63,35.54-20.52,35.54-20.52,2.75,4.77-36.46,23.37-35.54,25C338.69,112.46,431.1,42,431.1,42c.84,1.45-101.08,57.14-99.83,59.29C333.35,104.87,434,42,434,42c4.6,8-106.43,55.74-102.7,62.21C333.85,108.65,435,35.08,439,42c5.4,9.35-112.32,59.92-107.75,67.83,5.18,9,99.81-62.86,102.08-58.93,6.37,11-105.92,53.6-102.08,60.25,6.77,11.73,99.32-57.34,99.32-57.34l-99.32,60.64C334,119.22,422.1,58.3,423.7,61.06c0,0-98.1,47.07-92.43,56.89,2.63,4.55,85.07-49.11,85.07-49.11,3.53,6.12-87.44,48-85.07,52.13,3.4,5.89,78.78-45.48,78.78-45.48s-84.51,42.43-78.78,52.35c3.3,5.71,68.84-47.84,72.34-41.77.82,1.42-77.06,37.66-72.34,45.83,0,.08,74.17-42.82,74.17-42.82,1.27,2.21-74.17,45.74-74.17,45.74.13.23,75.48-43.58,75.48-43.58s-77.24,40.91-75.48,43.95c0,0,73.19-47.94,75.65-43.68l-75.65,46.94c.74,1.28,40.74-25.68,41.68-24.06,1.27,2.19-44.42,23.58-41.68,28.33,1.22,2.11,35.54-20.52,35.54-20.52s-35.68,21.31-35.54,21.54c2.17,3.76,33.16-24.65,35.54-20.52,1.83,3.17-35.54,21.63-35.54,21.63,1.15,2,33.81-23.52,35.54-20.52,0,0-35.94,24.53-35.54,25.21.79,1.37,35.55-20.52,35.55-20.52l-34.3,21.14s33.6-21,34.3-19.8l-29.2,19.8c.55,1,28.08-18.8,29.2-16.86.26.44-21.31,15.28-20.4,16.85.36.62,20.4-11.78,20.4-11.78.63,1.09-16.22,10.79-15.65,11.78,0,0,14.78-10.54,15.65-9,.26.46-5.65,9-5.65,9,.39.68,5.35-3.81,5.66-3.27l-1.5,3.26s1.47-.92,1.5-.87"/><path class="cls-2" d="M120.14,59.14,119,71.59l-3.75,11.9L108.53,94l-9.17,8.45-11.41,5-12.07,3-12.43,1.21-12.5-.33-12.41.12-.28,12.84.29,12.94,0,13-12.3-.33-12.2,0L2,150l.09-11.49-.47-11.68-.1-11.68.11-11.68.22-11.68L1.92,80,1.76,68.37l.07-11.68L1.93,45,1.88,33.32,1.53,21.63,1.71,9.8l12.45.48,12.32-.34L38.8,10l12.32-.12,12.32.09,12.11.79,11.81,2.7,11.19,4.63,9.62,7.42,6.72,10.1,3.54,11.55Zm-35.38,1.2L82.15,48.9l-8.8-7.65-11.7-2.13L50,39.43,38.33,39l0,10.87.36,10.75-.33,10.75.12,10.66L50,82.34l11.6-.29,11.81-2.19,9.15-7.69Z"/><path class="cls-2" d="M174.67,1.53V14.1l-.12,12.36-.11,12.37.33,12.36-.48,12.37.1,12.37.38,12.36-.35,12.36.17,12.37-.34,12.37.3,12.37,0,12.48-12-.35-11.87,0L139,150l.08-12.17-.5-12.36L138.52,113l.11-12.36.23-12.37.06-12.37-.17-12.36.08-12.36.11-12.37-.05-12.37-.37-12.37.18-12.52,12,.5,11.87-.36Z"/><path class="cls-2" d="M312.29,95.94l-1.05,11.39-3.2,11-5.46,10L295.22,137l-9.5,6.31-10.4,4.6-11.06,2.85-11.41.52-11.37-.66-11-2.81-10.52-4.32-9.29-6.6-7.25-8.75-5.34-10-3-10.93-1-11.31.58-11.35,3-11,5.46-10,7.66-8.4L220,48.65,230.41,44l11.09-2.49,11.34-.71,11.35.75,11.18,2.26,10.44,4.62,9,6.94,7.74,8.28,5.37,10,3.22,10.91Zm-82.4.4,2.33,13,8.07,10.29,12.56,3.77,12.54-3.87,8.54-10,2.38-13.12-2.76-12.91-8.05-10.31-12.65-3.48L240.2,73.06l-8,10.36Z"/><path class="cls-2" d="M377.86,109.65,367,120.82l-.1,14.62-.11,14.69-11.85.32L343.11,150l-11.82.12-.36-12.31.35-12.36L331.11,113l.34-12.36-.3-12.37-.06-12.37.4-12.36,0-12.36.06-12.37V26.49L331,14.11l0-12.6H343.1L355,1.76l11.81,0,.15,12.74-.08,12.8-.11,12.8.05,12.8.37,12.81-.25,12.61,8.83-8.71,8.38-9.4,8.68-9.13,8.59-9.27,13.5.08,13.47,0,13.32.07L434,50.35l-7.79,8.48L418.11,67l-8.16,8.14L402,83.73l7.1,11,6.43,11.25,7,10.89,6.86,11,6.45,11.24L442.42,150H428.64l-14,0-14.13.42-5.43-10.53-6.07-10-5.68-10.21Z"/></svg>