<?xml version="1.0" encoding="utf-8"?>
<!-- Generator: Adobe Illustrator 21.0.0, SVG Export Plug-In . SVG Version: 6.00 Build 0)  -->
<svg version="1.1" id="Layer_1" xmlns="http://www.w3.org/2000/svg" xmlns:xlink="http://www.w3.org/1999/xlink" x="0px" y="0px"
	 viewBox="0 0 1920 1280" style="enable-background:new 0 0 1920 1280;" xml:space="preserve">
<style type="text/css">
	.st0{fill:#FF8000;}
	.st1{fill:#FFFFFF;}
</style>
<rect class="st0" width="1920" height="1280"/>
<g>
	<path class="st1" d="M789.5,615.2c4.6-41.3,34.8-70.6,77-70.6c42.2,0,73.4,29.3,77,70.6h66.9c-4.6-76.1-66-134.8-143-134.8
		s-139.4,58.7-144,134.8H789.5z M634.5,631.7c-1.8,44.9-34.8,76.1-78.9,76.1c-44,0-77-31.2-77.9-76.1h-67.9V894h66.9V740.9h0.9
		c18.3,18.3,44,31.2,80.7,31.2c78.9,0,140.3-59.6,142.1-140.3C700.5,631.7,634.5,631.7,634.5,631.7z M477.7,615.2
		c3.7-42.2,35.8-70.6,77.9-70.6c42.2,0,74.3,29.3,78.9,70.6h66.9c-4.6-77-62.4-134.8-139.4-134.8c-36.7,0-66,13.8-83.4,32.1h-1.8
		V486h-66.9v129.3H477.7z M1408.4,766.5h66.9V631.7h-66.9V766.5z M1262.6,766.5h66.9V631.7h-66.9V766.5z M1184.6,631.7h-130.2
		c13.8,9.2,35.8,20.2,49.5,25.7c27.5,10.1,37.6,16.5,37.6,29.3s-14.7,20.2-33,20.2c-22,0-37.6-8.3-53.2-22l-44,44
		c25.7,25.7,52.3,43.1,98.1,43.1c48.6,0,99-34.8,99-87.1C1208.5,662,1198.4,644.6,1184.6,631.7z M944.4,631.7
		c-1.8,44.9-33,76.1-77.9,76.1c-44,0-76.1-32.1-77.9-76.1h-66.9c1.8,77.9,65.1,140.3,144,140.3s142.1-62.4,144-140.3
		C1009.5,631.7,944.4,631.7,944.4,631.7z M1475.3,486h-66.9v129.3h66.9V486z M1262.6,615.2h66.9v-70.6h61.4V486h-61.4V386h-66.9V486
		h-50.4v58.7h50.4V615.2z M1166.3,615.2c-12.8-8.3-28.4-14.7-42.2-19.3c-25.7-9.2-37.6-15.6-37.6-30.3c0-11.9,11.9-20.2,27.5-20.2
		c16.5,0,33,6.4,46.8,19.3l43.1-46.8c-25.7-23.8-52.3-36.7-89.9-36.7c-38.5,0-90.8,30.3-90.8,87.1c0,19.3,6.4,34.8,16.5,46.8H1166.3
		z"/>
	<path class="st1" d="M1465.2,401.6c-4.6,0-14.7,8.3-14.7,40.3c10.1-8.3,20.2-24.8,20.2-33.9
		C1469.8,403.4,1468.9,401.6,1465.2,401.6z M1422.1,422.7c-3.7,0-5.5,2.8-5.5,6.4c0,9.2,9.2,14.7,19.3,16.5c0-0.9,0-1.8,0-2.8
		C1435.9,431.9,1430.4,422.7,1422.1,422.7z M1398.3,447.4c8.3,6.4,14.7,12.8,22,12.8c3.7,0,5.5-0.9,7.3-1.8
		c-15.6-4.6-24.8-17.4-24.8-29.3c0-11,7.3-19.3,19.3-19.3c7.3,0,12.8,3.7,17.4,7.3c4.6-18.3,15.6-28.4,27.5-28.4
		c11,0,16.5,8.3,16.5,20.2c0,14.7-13.8,38.5-30.3,47.7c1.8,2.8,4.6,4.6,9.2,4.6c14.7,0,27.5-12.8,35.8-22.9c1.8-1.8,3.7-2.8,5.5-2.8
		c3.7,0,6.4,2.8,6.4,6.4c0,1.8-0.9,3.7-1.8,4.6c-8.3,9.2-24.8,27.5-45.8,27.5c-9.2,0-16.5-4.6-20.2-10.1c-5.5,6.4-12.8,10.1-22,10.1
		c-9.2,0-18.3-6.4-26.6-12.8c-3.7-2.8-8.3-6.4-11-8.3c-2.8-2.8-5.5-3.7-6.4-3.7c-5.5,0-7.3-3.7-7.3-7.3s2.8-6.4,7.3-6.4
		c3.7,0,7.3,1.8,11,3.7C1391,441,1394.6,443.8,1398.3,447.4z"/>
</g>
</svg>
