<?xml version="1.0" encoding="utf-8"?>
<!-- Generator: Adobe Illustrator 21.0.0, SVG Export Plug-In . SVG Version: 6.00 Build 0)  -->
<svg version="1.1" id="Layer_1" xmlns="http://www.w3.org/2000/svg" xmlns:xlink="http://www.w3.org/1999/xlink" x="0px" y="0px"
	 viewBox="0 0 1920 1280" style="enable-background:new 0 0 1920 1280;" xml:space="preserve">
<style type="text/css">
	.st0{fill:#FF8000;}
	.st1{fill:#EEEEEE;}
	.st2{clip-path:url(#SVGID_2_);}
	.st3{fill:#FFFFFF;}
	.st4{fill:#007AC1;}
	.st5{clip-path:url(#SVGID_4_);}
</style>
<rect x="-2" y="0" class="st0" width="960" height="1280"/>
<rect x="958" y="0" class="st1" width="961.6" height="1280"/>
<g>
	<defs>
		<rect id="SVGID_1_" x="959.6" y="0" width="960" height="1280"/>
	</defs>
	<clipPath id="SVGID_2_">
		<use xlink:href="#SVGID_1_"  style="overflow:visible;"/>
	</clipPath>
	<g class="st2">
		<path id="path3" class="st3" d="M223.4,798.1V481.9h260.2c68.7-195.7,250.9-333,465.1-333c214.3,0,396.4,137.2,463.5,328.4
			l261.8,4.5v316.2h-260.2c-68.7,195.7-250.8,333-465.1,333c-214.3,0-396.4-137.2-463.5-328.5L223.4,798.1 M748.6,481.9h400.2
			C1102,422.8,1029.7,385,948.7,385C867.6,385,795.4,422.8,748.6,481.9z M1148.8,798.1H748.6c46.7,59.1,119,96.9,200.1,96.9
			C1029.7,895,1102,857.2,1148.8,798.1z"/>
		<path id="path5" class="st4" d="M1630,754.1H267.3V525.9H1630L1630,754.1L1630,754.1z"/>
		<path id="path7" class="st4" d="M948.7,341c-111.3,0-208.4,60.8-259.9,150.9H526.7c61.1-174.2,227-299,422-299
			c195,0,360.9,124.9,422,299h-162.1C1157.1,401.8,1060,341,948.7,341"/>
		<path id="path9" class="st4" d="M688.8,788c51.5,90.2,148.6,151,259.9,151c111.3,0,208.4-60.8,259.9-151h162.1
			c-61.1,174.2-227,299-422,299c-195.1,0-360.9-124.9-422-299H688.8"/>
		<path id="path11" class="st3" d="M475.5,715l-14.3-148h-49.3l-9.6,51.3c-1.8,9.2-2.8,18.3-4,27.5H398L386.6,567h-49.9l-17.3,148
			h43l3.4-60.3c0.6-11,0.3-21.7,0.6-32.8h0.3l14,93.1h32.6l11.3-60.6c2-10.8,3.3-21.7,5.1-32.4h0.4l3.7,93.1L475.5,715"/>
		<path id="path13" class="st3" d="M529.7,664.6l5.5-34.4c1.6-9.3,2.6-18.6,3.8-27.9h0.4c1,9.3,1.7,18.6,2.9,27.9l4.3,34.4H529.7
			 M595.7,715l-31.4-148h-48.9l-35.6,148h41.3l3.3-19.1h26.9l2.9,19.1H595.7z"/>
		<polyline id="polyline15" class="st3" points="652.5,715 652.5,603.1 675.6,603.1 675.6,567 590.5,567 590.5,603.1 612.5,603.1 
			612.5,715 652.5,715 		"/>
		<polyline id="polyline17" class="st3" points="799.5,715 763.8,638.5 795.8,567 753.6,567 731.7,630 731,630 731,630.4 731.4,630 
			731.2,630 731.4,630 731.4,567 691.4,567 691.4,715 731.4,715 731.4,647.1 731.8,647.1 731.7,647.1 756.5,715 799.5,715 		"/>
		<path id="path19" class="st3" d="M855.3,664.6l5.5-34.4c1.6-9.3,2.6-18.6,3.7-27.9h0.4c1,9.3,1.8,18.6,2.9,27.9l4.3,34.4H855.3
			 M921.3,715l-31.4-148h-48.9l-35.5,148h41.2L850,696h26.9l3,19.1H921.3z"/>
		<polyline id="polyline21" class="st3" points="1033.3,715 1033.3,567 993.3,567 993.3,620 974.2,620 974.2,567 934.2,567 
			934.2,715 974.2,715 974.2,655 993.3,655 993.3,715 1033.3,715 		"/>
		<path id="path23" class="st3" d="M1116.4,567v93.2c0,3.8,0.2,8.9-1,13c-1,4-3.5,7.1-9.2,7.1c-5.6,0-8.1-3.1-9.3-7.3
			c-1.2-4-0.9-9-0.9-13V567h-40.1v96.8c0,17.9,4,53.9,50.3,53.9c46.3,0,50.2-36,50.2-53.9V567H1116.4"/>
		<path id="path25" class="st3" d="M1215.1,641c0-9.3,0.5-39.3,15.7-39.3c15.1,0,15.7,30,15.7,39.3c0,9.3-0.6,39.3-15.7,39.3
			C1215.6,680.3,1215.1,650.3,1215.1,641 M1174.3,641c0,36.1,15.9,76.6,56.5,76.6c40.6,0,56.6-40.5,56.6-76.6
			c0-36.1-15.9-76.6-56.6-76.6C1190.2,564.4,1174.3,604.9,1174.3,641z"/>
		<polyline id="polyline27" class="st3" points="1376.4,715 1376.4,680.1 1346.4,680.1 1346.4,567 1306.3,567 1306.3,715 
			1376.4,715 		"/>
		<polyline id="polyline29" class="st3" points="1432.7,715 1432.7,603.1 1455.7,603.1 1455.7,567 1370.7,567 1370.7,603.1 
			1392.6,603.1 1392.6,715 1432.7,715 		"/>
		<path id="path31" class="st3" d="M1507.8,641c0-9.3,0.6-39.3,15.7-39.3c15.1,0,15.7,30,15.7,39.3c0,9.3-0.6,39.3-15.7,39.3
			C1508.4,680.3,1507.8,650.3,1507.8,641 M1467,641c0,36.1,15.9,76.6,56.6,76.6c40.7,0,56.6-40.5,56.6-76.6
			c0-36.1-15.8-76.6-56.6-76.6C1482.9,564.4,1467,604.9,1467,641z"/>
	</g>
</g>
<g>
	<defs>
		<rect id="SVGID_3_" x="-2" y="0" width="960" height="1280"/>
	</defs>
	<clipPath id="SVGID_4_">
		<use xlink:href="#SVGID_3_"  style="overflow:visible;"/>
	</clipPath>
	<g class="st5">
		<path class="st3" d="M789.5,615.2c4.6-41.3,34.8-70.6,77-70.6c42.2,0,73.4,29.3,77,70.6h66.9c-4.6-76.1-66-134.8-143-134.8
			s-139.4,58.7-144,134.8H789.5z M634.5,631.7c-1.8,44.9-34.8,76.1-78.9,76.1c-44,0-77-31.2-77.9-76.1h-67.9V894h66.9V740.9h0.9
			c18.3,18.3,44,31.2,80.7,31.2c78.9,0,140.3-59.6,142.1-140.3C700.5,631.7,634.5,631.7,634.5,631.7z M477.7,615.2
			c3.7-42.2,35.8-70.6,77.9-70.6c42.2,0,74.3,29.3,78.9,70.6h66.9c-4.6-77-62.4-134.8-139.4-134.8c-36.7,0-66,13.8-83.4,32.1h-1.8
			V486h-66.9v129.3H477.7z M1408.4,766.5h66.9V631.7h-66.9V766.5z M1262.6,766.5h66.9V631.7h-66.9V766.5z M1184.6,631.7h-130.2
			c13.8,9.2,35.8,20.2,49.5,25.7c27.5,10.1,37.6,16.5,37.6,29.3s-14.7,20.2-33,20.2c-22,0-37.6-8.3-53.2-22l-44,44
			c25.7,25.7,52.3,43.1,98.1,43.1c48.6,0,99-34.8,99-87.1C1208.5,662,1198.4,644.6,1184.6,631.7z M944.4,631.7
			c-1.8,44.9-33,76.1-77.9,76.1c-44,0-76.1-32.1-77.9-76.1h-66.9c1.8,77.9,65.1,140.3,144,140.3s142.1-62.4,144-140.3
			C1009.5,631.7,944.4,631.7,944.4,631.7z M1475.3,486h-66.9v129.3h66.9V486z M1262.6,615.2h66.9v-70.6h61.4V486h-61.4V386h-66.9
			V486h-50.4v58.7h50.4V615.2z M1166.3,615.2c-12.8-8.3-28.4-14.7-42.2-19.3c-25.7-9.2-37.6-15.6-37.6-30.3
			c0-11.9,11.9-20.2,27.5-20.2c16.5,0,33,6.4,46.8,19.3l43.1-46.8c-25.7-23.8-52.3-36.7-89.9-36.7c-38.5,0-90.8,30.3-90.8,87.1
			c0,19.3,6.4,34.8,16.5,46.8H1166.3z"/>
		<path class="st3" d="M1465.2,401.6c-4.6,0-14.7,8.3-14.7,40.3c10.1-8.3,20.2-24.8,20.2-33.9
			C1469.8,403.4,1468.9,401.6,1465.2,401.6z M1422.1,422.7c-3.7,0-5.5,2.8-5.5,6.4c0,9.2,9.2,14.7,19.3,16.5c0-0.9,0-1.8,0-2.8
			C1435.9,431.9,1430.4,422.7,1422.1,422.7z M1398.3,447.4c8.3,6.4,14.7,12.8,22,12.8c3.7,0,5.5-0.9,7.3-1.8
			c-15.6-4.6-24.8-17.4-24.8-29.3c0-11,7.3-19.3,19.3-19.3c7.3,0,12.8,3.7,17.4,7.3c4.6-18.3,15.6-28.4,27.5-28.4
			c11,0,16.5,8.3,16.5,20.2c0,14.7-13.8,38.5-30.3,47.7c1.8,2.8,4.6,4.6,9.2,4.6c14.7,0,27.5-12.8,35.8-22.9
			c1.8-1.8,3.7-2.8,5.5-2.8c3.7,0,6.4,2.8,6.4,6.4c0,1.8-0.9,3.7-1.8,4.6c-8.3,9.2-24.8,27.5-45.8,27.5c-9.2,0-16.5-4.6-20.2-10.1
			c-5.5,6.4-12.8,10.1-22,10.1c-9.2,0-18.3-6.4-26.6-12.8c-3.7-2.8-8.3-6.4-11-8.3c-2.8-2.8-5.5-3.7-6.4-3.7c-5.5,0-7.3-3.7-7.3-7.3
			s2.8-6.4,7.3-6.4c3.7,0,7.3,1.8,11,3.7C1391,441,1394.6,443.8,1398.3,447.4z"/>
	</g>
</g>
</svg>
