<?xml version="1.0" encoding="utf-8"?>
<!-- Generator: Adobe Illustrator 21.0.0, SVG Export Plug-In . SVG Version: 6.00 Build 0)  -->
<svg version="1.1" id="Layer_1" xmlns="http://www.w3.org/2000/svg" xmlns:xlink="http://www.w3.org/1999/xlink" x="0px" y="0px"
	 viewBox="0 0 1922 1280" style="enable-background:new 0 0 1922 1280;" xml:space="preserve">
<style type="text/css">
	.st0{fill:#351C15;}
	.st1{fill:#FFB500;}
</style>
<rect class="st0" width="1922" height="1280"/>
<g>
	<path class="st1" d="M961,1133c-25.7-11.1-235.1-102.7-302.8-158.2C585.3,915,546.7,829.2,546.7,726.6V238.9
		C661.8,177.9,801.2,147,961,147c159.8,0,299.2,30.9,414.3,91.9v487.7c0,102.6-38.5,188.5-111.4,248.2
		C1197.2,1029.5,985.3,1122.4,961,1133C961,1133,961,1133,961,1133z M1237.8,1063.4c-19.2,0-34.8,15.7-34.8,34.9
		c0,19.2,15.6,34.7,34.8,34.7c19.3,0,34.8-15.6,34.8-34.7C1272.6,1079.1,1257.1,1063.4,1237.8,1063.4z M1266.5,1098.3
		c0,15.8-12.8,28.6-28.7,28.6c-15.8,0-28.6-12.8-28.6-28.6c0-15.8,12.9-28.7,28.6-28.7C1253.7,1069.6,1266.5,1082.5,1266.5,1098.3z
		 M1236.6,1083.2c6.5,0,7.3,3.2,7.3,6c0,4-1.7,6.6-9.9,6.6h-1v-12.6L1236.6,1083.2L1236.6,1083.2z M1225.5,1077v42.3h7.6v-17.7h1.1
		c0.6,0.9,11.5,17.7,11.5,17.7h9.2c0,0-11.6-17-12.7-18.6c5.6-1.3,9.4-5.4,9.4-11.3c0-6-3.7-12.4-14.1-12.4L1225.5,1077L1225.5,1077
		z"/>
	<path class="st0" d="M1121.5,557.7c-0.3-58.2,49.3-92.6,96.7-93.9c39.6-1.2,66.4,13.7,79.1,23.4v62.7c-15-15.4-39.4-29.4-64.6-29.6
		c-20.4-0.2-41.7,8.8-42.4,34.4c-0.7,26.2,20.5,36.6,47.4,52.4c60.2,35.4,71.8,67.2,70.5,109.2c-1.4,46.1-33.2,96.4-104.4,96.4
		c-28.5,0-56.6-8.9-79.2-22.4V724c18.4,16.4,45.9,29.2,68.9,29.3c26.4,0.1,43.8-15,43.2-40.2c-0.5-22.6-13.3-34.9-45-53.5
		C1132.3,624.7,1121.6,596,1121.5,557.7L1121.5,557.7z M946.7,527c5.9-2.9,15.8-5.2,25.5-5.2c41.9,0,59.2,33.4,59.2,114.1
		c0,78.8-19.8,116.8-61.3,116.8c-9.7,0-18.2-2.4-23.4-4.3V527L946.7,527z M946.7,959.1h-72.1V489.4c26.1-16.9,57.9-25.6,97.1-25.6
		c86,0,133.3,65.3,133.3,170.3c0,105.3-45.9,177.3-125.9,177.3c-14.8,0-25.2-2-32.4-4.1L946.7,959.1L946.7,959.1z M621.6,697.6
		V471.1h72v229.8c0,20.4,4.9,50.7,38,50.7c14.6,0,26.3-3.4,34.1-8.8V471.1h72v312.7c-27.5,18.7-64.5,28.9-108.6,28.9
		C657.7,812.7,621.6,774,621.6,697.6L621.6,697.6z M584.8,726.7c0,90.9,33.6,166.7,97.4,218.8c56.4,46,229.8,124.4,278.8,146
		c48.3-21.3,221.3-98.8,278.7-146c64.3-52.9,97.5-127,97.5-218.8V249.2c-241.2-22.4-526.6-8.7-752.4,198.5L584.8,726.7L584.8,726.7
		L584.8,726.7z"/>
</g>
</svg>
